<svg width="40" height="40" viewBox="0 0 40 40" fill="none" xmlns="http://www.w3.org/2000/svg">
<g id="arrow_circle_down">
<path id="Vector" d="M19.9999 6.66671C27.3499 6.66671 33.3333 12.65 33.3333 20C33.3333 27.35 27.3499 33.3334 19.9999 33.3334C12.6499 33.3334 6.66659 27.35 6.66659 20C6.66659 12.65 12.6499 6.66671 19.9999 6.66671ZM19.9999 3.33337C10.7999 3.33337 3.33325 10.8 3.33325 20C3.33325 29.2 10.7999 36.6667 19.9999 36.6667C29.1999 36.6667 36.6666 29.2 36.6666 20C36.6666 10.8 29.1999 3.33337 19.9999 3.33337ZM21.6666 20V15C21.6666 14.0834 20.9166 13.3334 19.9999 13.3334C19.0833 13.3334 18.3333 14.0834 18.3333 15V20H15.3499C14.5999 20 14.2333 20.9 14.7666 21.4167L19.4166 26.0667C19.7499 26.4 20.2666 26.4 20.5999 26.0667L25.2499 21.4167C25.7666 20.9 25.3999 20 24.6666 20H21.6666Z" fill="white"/>
</g>
</svg>
