<svg width="16" height="17" viewBox="0 0 16 17" fill="none" xmlns="http://www.w3.org/2000/svg">
<g id="Horizontal container">
<g id="Horizontal container_2">
<g id="Horizontal container_3">
<path id="Stroke-1" opacity="0.4" d="M7.33464 12.167H2.66797" stroke="#111827" stroke-width="1.5" stroke-linecap="round" stroke-linejoin="round"/>
<path id="Stroke-3" fill-rule="evenodd" clip-rule="evenodd" d="M13.3333 12.1667C13.3333 13.0871 12.5871 13.8333 11.6667 13.8333C10.7462 13.8333 10 13.0871 10 12.1667C10 11.2455 10.7462 10.5 11.6667 10.5C12.5871 10.5 13.3333 11.2455 13.3333 12.1667Z" stroke="#111827" stroke-width="1.5" stroke-linecap="round" stroke-linejoin="round"/>
<path id="Stroke-5" opacity="0.4" d="M8.66797 4.83398H13.3346" stroke="#111827" stroke-width="1.5" stroke-linecap="round" stroke-linejoin="round"/>
<path id="Stroke-7" fill-rule="evenodd" clip-rule="evenodd" d="M2.66797 4.83366C2.66797 5.75482 3.41416 6.50033 4.33464 6.50033C5.25511 6.50033 6.0013 5.75482 6.0013 4.83366C6.0013 3.91318 5.25511 3.16699 4.33464 3.16699C3.41416 3.16699 2.66797 3.91318 2.66797 4.83366Z" stroke="#111827" stroke-width="1.5" stroke-linecap="round" stroke-linejoin="round"/>
</g>
</g>
</g>
</svg>
