<svg width="24" height="25" viewBox="0 0 24 25" fill="none" xmlns="http://www.w3.org/2000/svg">
<g id="shopping_cart">
<path id="Vector" d="M16.5463 13.5C17.2963 13.5 17.9563 13.09 18.2963 12.47L21.8763 5.98C22.2463 5.32 21.7663 4.5 21.0063 4.5H6.20634L5.26634 2.5H1.99634V4.5H3.99634L7.59634 12.09L6.24634 14.53C5.51634 15.87 6.47634 17.5 7.99634 17.5H19.9963V15.5H7.99634L9.09634 13.5H16.5463ZM7.15634 6.5H19.3063L16.5463 11.5H9.52634L7.15634 6.5ZM7.99634 18.5C6.89634 18.5 6.00634 19.4 6.00634 20.5C6.00634 21.6 6.89634 22.5 7.99634 22.5C9.09634 22.5 9.99634 21.6 9.99634 20.5C9.99634 19.4 9.09634 18.5 7.99634 18.5ZM17.9963 18.5C16.8963 18.5 16.0063 19.4 16.0063 20.5C16.0063 21.6 16.8963 22.5 17.9963 22.5C19.0963 22.5 19.9963 21.6 19.9963 20.5C19.9963 19.4 19.0963 18.5 17.9963 18.5Z" fill="white"/>
</g>
</svg>
