<svg width="34" height="39" viewBox="0 0 34 39" fill="none" xmlns="http://www.w3.org/2000/svg">
<g id="Switch">
<path id="Vector" d="M0 28.894L2.98023e-06 10.1061L9.39392 15.325V23.7273L16.9091 27.9546L24.4242 23.7273V15.325L33.8182 10.1061V28.894L16.9091 38.2879L0 28.894Z" fill="white"/>
<path id="Vector_2" fill-rule="evenodd" clip-rule="evenodd" d="M4.69698 12.7155L0 10.106L16.9091 0.712097L33.8182 10.106L29.1212 12.7155V26.5454L16.9091 33.5909L4.69697 26.5454L4.69698 12.7155ZM28.6124 12.9982L24.4242 15.3249V15.2727L16.9091 11.0454L9.39392 15.2727V15.3249L5.20581 12.9982V26.2564L16.9091 33.0083L28.6124 26.2564V12.9982Z" fill="url(#paint0_linear_405_5699)"/>
</g>
<defs>
<linearGradient id="paint0_linear_405_5699" x1="11" y1="8.2121" x2="31.4584" y2="12.4274" gradientUnits="userSpaceOnUse">
<stop stop-color="#C1F651"/>
<stop offset="1" stop-color="#F6EF51"/>
</linearGradient>
</defs>
</svg>
